<?xml version="1.0" encoding="utf-8"?>
<!-- Generator: Adobe Illustrator 27.7.0, SVG Export Plug-In . SVG Version: 6.00 Build 0)  -->
<svg version="1.1" id="Calque_1" xmlns="http://www.w3.org/2000/svg" xmlns:xlink="http://www.w3.org/1999/xlink" x="0px" y="0px"
	 viewBox="0 0 230 75.1" style="enable-background:new 0 0 230 75.1;" xml:space="preserve">
<style type="text/css">
	.st0{fill:#E88424;}
	.st1{fill:#848687;}
	.st2{fill:#525859;}
</style>
<g>
	<g>
		<polygon class="st0" points="56.6,12.7 33,35.8 56.4,59.1 58.7,56.5 38,35.8 59.4,14.8 		"/>
		<polygon class="st1" points="33.1,2.7 33.1,4.3 6.4,49.8 8.4,53.5 33.1,11.7 33.1,68.8 36.6,68.8 36.6,2.7 		"/>
		<path class="st2" d="M34.8,0.8C15.6,0.8,0,16.4,0,35.6c0,19.2,15.6,34.8,34.8,34.8s34.8-15.6,34.8-34.8
			C69.6,16.4,54.1,0.8,34.8,0.8z M34.8,66.9c-17.3,0-31.3-14-31.3-31.3c0-17.3,14-31.3,31.3-31.3s31.3,14,31.3,31.3
			C66.1,52.9,52.1,66.9,34.8,66.9z"/>
	</g>
	<g>
		<g>
			<path class="st1" d="M94.8,53.2l-1.6,1.2c-0.9-1.1-1.9-2-3.1-2.5c-1.2-0.6-2.5-0.9-4-0.9c-1.6,0-3,0.4-4.4,1.1
				c-1.3,0.8-2.4,1.8-3.1,3.1c-0.7,1.3-1.1,2.7-1.1,4.3c0,2.4,0.8,4.4,2.5,6c1.7,1.6,3.7,2.4,6.3,2.4c2.8,0,5.1-1.1,6.9-3.3l1.6,1.2
				c-1,1.3-2.2,2.2-3.7,2.9c-1.5,0.7-3.1,1-4.9,1c-3.5,0-6.2-1.2-8.2-3.5c-1.7-1.9-2.5-4.3-2.5-7c0-2.9,1-5.3,3-7.3c2-2,4.6-3,7.6-3
				c1.8,0,3.5,0.4,5,1.1C92.6,50.9,93.8,51.9,94.8,53.2z"/>
			<path class="st1" d="M105.9,54.3c2.3,0,4.1,0.8,5.6,2.4c1.3,1.5,2,3.2,2,5.3c0,2-0.7,3.8-2.1,5.4c-1.4,1.5-3.3,2.3-5.5,2.3
				c-2.2,0-4.1-0.8-5.5-2.3c-1.4-1.5-2.1-3.3-2.1-5.4c0-2,0.7-3.8,2-5.3C101.8,55.2,103.6,54.3,105.9,54.3z M105.9,56.2
				c-1.6,0-2.9,0.6-4,1.7c-1.1,1.2-1.7,2.6-1.7,4.2c0,1.1,0.3,2,0.8,3c0.5,0.9,1.2,1.6,2.1,2.1c0.9,0.5,1.8,0.7,2.9,0.7
				c1,0,2-0.2,2.9-0.7c0.9-0.5,1.6-1.2,2.1-2.1c0.5-0.9,0.8-1.9,0.8-3c0-1.6-0.6-3-1.7-4.2C108.8,56.8,107.4,56.2,105.9,56.2z"/>
			<path class="st1" d="M118.1,54.7h1.9v2.6c0.8-1,1.6-1.8,2.5-2.3c0.9-0.5,1.9-0.7,3-0.7c1.1,0,2.1,0.3,2.9,0.8
				c0.8,0.6,1.5,1.3,1.9,2.2c0.4,0.9,0.6,2.4,0.6,4.4v7.5H129v-7c0-1.7-0.1-2.8-0.2-3.4c-0.2-1-0.6-1.7-1.3-2.2
				c-0.6-0.5-1.4-0.7-2.4-0.7c-1.1,0-2.2,0.4-3.1,1.1c-0.9,0.8-2,2.9-2,4.8v7.3h-1.9V54.7z"/>
			<path class="st1" d="M144.4,56.3l-1.2,1.2c-1-1-2-1.5-3-1.5c-0.6,0-1.1,0.2-1.6,0.6c-0.4,0.4-0.7,0.9-0.7,1.4
				c0,0.5,0.2,0.9,0.5,1.4c0.4,0.4,1.1,1,2.3,1.5c1.4,0.7,2.4,1.4,2.9,2.1c0.5,0.7,0.7,1.4,0.7,2.3c0,1.2-0.4,2.2-1.3,3
				c-0.8,0.8-1.9,1.2-3.2,1.2c-0.8,0-1.6-0.2-2.4-0.6c-0.8-0.4-1.4-0.9-1.9-1.5l1.2-1.3c1,1.1,2,1.6,3.1,1.6c0.8,0,1.4-0.2,1.9-0.7
				c0.5-0.5,0.8-1.1,0.8-1.7c0-0.5-0.2-1-0.5-1.4c-0.4-0.4-1.1-0.9-2.4-1.6c-1.3-0.7-2.2-1.4-2.7-2c-0.5-0.7-0.7-1.4-0.7-2.3
				c0-1.1,0.4-2,1.1-2.8c0.8-0.7,1.7-1.1,2.9-1.1C141.7,54.3,143.1,55,144.4,56.3z"/>
			<path class="st1" d="M149.7,54.7h1.9v6.8c0,1.7,0.1,2.8,0.3,3.4c0.3,0.9,0.8,1.6,1.5,2.1c0.8,0.5,1.7,0.8,2.7,0.8
				s1.9-0.3,2.7-0.8c0.7-0.5,1.2-1.2,1.5-2c0.2-0.6,0.3-1.8,0.3-3.6v-6.8h1.9v7.2c0,2-0.2,3.5-0.7,4.6c-0.5,1-1.2,1.8-2.1,2.4
				c-0.9,0.6-2.1,0.9-3.6,0.9s-2.6-0.3-3.6-0.9c-1-0.6-1.7-1.4-2.1-2.4c-0.5-1-0.7-2.6-0.7-4.7V54.7z"/>
			<path class="st1" d="M168.6,49.1h1.9v20.3h-1.9V49.1z"/>
			<path class="st1" d="M178.2,49.3h1.9v5.4h3v1.6h-3v13h-1.9v-13h-2.6v-1.6h2.6V49.3z"/>
			<path class="st1" d="M187.8,54.7h1.9v14.6h-1.9V54.7z"/>
			<path class="st1" d="M195.8,54.7h1.9v2.6c0.8-1,1.6-1.8,2.5-2.3c0.9-0.5,1.9-0.7,3-0.7c1.1,0,2.1,0.3,2.9,0.8
				c0.8,0.6,1.5,1.3,1.9,2.2c0.4,0.9,0.6,2.4,0.6,4.4v7.5h-1.9v-7c0-1.7-0.1-2.8-0.2-3.4c-0.2-1-0.6-1.7-1.3-2.2
				c-0.6-0.5-1.4-0.7-2.4-0.7c-1.1,0-2.2,0.4-3.1,1.1c-0.9,0.8-1.5,1.7-1.8,2.8c-0.2,0.7-0.3,2.1-0.3,4v5.4h-1.9V54.7z"/>
			<path class="st1" d="M227.4,54.7h1.9v11.6c0,2.1-0.2,3.6-0.5,4.5c-0.5,1.3-1.3,2.4-2.6,3.1c-1.2,0.7-2.7,1.1-4.4,1.1
				c-1.3,0-2.4-0.2-3.4-0.5c-1-0.4-1.8-0.8-2.4-1.4c-0.6-0.6-1.2-1.5-1.7-2.6h2c0.6,1,1.3,1.7,2.2,2.1c0.9,0.5,2,0.7,3.3,0.7
				c1.3,0,2.4-0.2,3.2-0.7c0.9-0.5,1.5-1.1,1.9-1.8c0.4-0.7,0.6-1.9,0.6-3.5v-0.8c-0.7,0.9-1.6,1.6-2.6,2.1s-2.1,0.7-3.3,0.7
				c-1.3,0-2.6-0.3-3.8-1c-1.2-0.7-2.1-1.6-2.7-2.7c-0.6-1.1-1-2.4-1-3.7s0.3-2.6,1-3.8c0.7-1.2,1.6-2.1,2.8-2.8
				c1.2-0.7,2.4-1,3.8-1c1.1,0,2.1,0.2,3.1,0.7c0.9,0.5,1.9,1.2,2.7,2.2V54.7z M221.9,56.2c-1.1,0-2.1,0.3-3,0.8
				c-0.9,0.5-1.6,1.2-2.1,2.1C216.2,60,216,61,216,62c0,1.6,0.5,2.9,1.6,4c1.1,1,2.5,1.6,4.2,1.6c1.7,0,3.1-0.5,4.2-1.6
				c1.1-1,1.6-2.4,1.6-4.1c0-1.1-0.2-2.1-0.7-2.9c-0.5-0.9-1.2-1.5-2.1-2C223.9,56.4,222.9,56.2,221.9,56.2z"/>
		</g>
		<path class="st0" d="M188.6,48.7c0.4,0,0.8,0.2,1.1,0.5c0.3,0.3,0.5,0.7,0.5,1.1c0,0.4-0.2,0.8-0.5,1.1c-0.3,0.3-0.7,0.5-1.1,0.5
			c-0.4,0-0.8-0.2-1.1-0.5c-0.3-0.3-0.5-0.7-0.5-1.1c0-0.4,0.2-0.8,0.5-1.1C187.8,48.8,188.2,48.7,188.6,48.7z"/>
		<g>
			<path d="M118,1.9h9.4c4.5,0,7.6,0.2,9.2,0.6c2.4,0.6,4.4,1.8,5.9,3.7c1.5,1.9,2.3,4.2,2.3,7c0,7.2-4.4,11.4-12.7,11.4l14.6,19.7
				h-5L127,24.6h-5v19.7H118V1.9z M122,6v14.4l8.3,0.1c2.7,0,4.7-0.3,6-0.8c1.3-0.5,2.3-1.4,3-2.6c0.7-1.2,1.1-2.5,1.1-4
				c0-1.4-0.4-2.7-1.1-3.9c-0.7-1.2-1.7-2-2.9-2.5c-1.2-0.5-3.2-0.7-6-0.7H122z"/>
			<path d="M207.6,0.7c-12.3,0-22.3,10-22.3,22.3c0,12.3,10,22.3,22.3,22.3c12.3,0,22.3-10,22.3-22.3C230,10.7,220,0.7,207.6,0.7z
				 M207.6,41.3c-10.1,0-18.3-8.2-18.3-18.3c0-10.1,8.2-18.3,18.3-18.3s18.3,8.2,18.3,18.3C225.9,33.1,217.7,41.3,207.6,41.3z"/>
			<g>
				<rect x="154.2" y="1.9" class="st0" width="4" height="42.4"/>
				<polygon class="st0" points="185,1.9 179.4,1.9 158.2,23.2 179.4,44.4 185,44.4 163.8,23.1 				"/>
			</g>
			<path d="M103.8,1.9L103.8,1.9L77,44.3h4.5L91,29.5h12.8v14.8h4V1.9H103.8z M93.6,25.5l10.2-15.8v15.8H93.6z"/>
		</g>
	</g>
</g>
</svg>
